<svg width="14" height="14" viewBox="0 0 14 14" fill="none" xmlns="http://www.w3.org/2000/svg">
<path d="M7.11402 4.66637L7.43801 5.42419C7.45998 5.49009 7.52038 5.52853 7.58079 5.53402L8.40451 5.6109C8.58024 5.62737 8.64613 5.84154 8.51983 5.95686L7.8993 6.50052C7.84987 6.54445 7.82791 6.61035 7.84438 6.67075L8.0256 7.478C8.06404 7.64823 7.88282 7.78003 7.72906 7.69216L7.02066 7.26932C6.96575 7.23637 6.89436 7.23637 6.83944 7.26932L6.13104 7.69216C5.98277 7.78003 5.79607 7.64823 5.83451 7.478L6.01572 6.67075C6.0322 6.61035 6.01023 6.54445 5.96081 6.50052L5.34027 5.95686C5.20848 5.84154 5.27987 5.62737 5.45559 5.6109L6.27931 5.53402C6.34521 5.52853 6.40013 5.49009 6.42758 5.42968L6.75158 4.67186C6.81748 4.50712 7.04263 4.50712 7.11402 4.66637Z" stroke="#F0C932" stroke-width="0.549146" stroke-miterlimit="10" stroke-linecap="round" stroke-linejoin="round"/>
<path d="M10.6655 6.27243C10.6797 4.21009 9.01938 2.52673 6.95704 2.51254C4.8947 2.49834 3.21134 4.1587 3.19715 6.22103C3.18295 8.28337 4.8433 9.96674 6.90564 9.98093C8.96798 9.99512 10.6513 8.33477 10.6655 6.27243Z" stroke="#F0C932" stroke-width="0.549146" stroke-miterlimit="10" stroke-linecap="round" stroke-linejoin="round"/>
<path d="M6.42208 9.94366L5.49402 12.2775L4.31885 10.9321L2.5451 11.0969L3.72028 8.15344" stroke="#F0C932" stroke-width="0.549146" stroke-miterlimit="10" stroke-linecap="round" stroke-linejoin="round"/>
<path d="M7.43253 9.94366L8.36607 12.2775L9.53576 10.9321L11.315 11.0969L10.1343 8.15344" stroke="#F0C932" stroke-width="0.549146" stroke-miterlimit="10" stroke-linecap="round" stroke-linejoin="round"/>
</svg>
