<svg width="8" height="8" viewBox="0 0 8 8" fill="none" xmlns="http://www.w3.org/2000/svg">
<path d="M3.97529 2.42015C3.04963 2.42015 2.30298 3.16294 2.30298 4.08384C2.30298 5.00473 3.04963 5.74752 3.97529 5.74752C4.90095 5.74752 5.64759 5.00473 5.64759 4.08384C5.64759 3.16294 4.90095 2.42015 3.97529 2.42015ZM3.97529 5.16545C3.3771 5.16545 2.88807 4.68039 2.88807 4.08384C2.88807 3.48728 3.37564 3.00222 3.97529 3.00222C4.57493 3.00222 5.0625 3.48728 5.0625 4.08384C5.0625 4.68039 4.57347 5.16545 3.97529 5.16545ZM6.10606 2.35209C6.10606 2.56784 5.9314 2.74014 5.716 2.74014C5.49914 2.74014 5.32594 2.56639 5.32594 2.35209C5.32594 2.1378 5.50059 1.96405 5.716 1.96405C5.9314 1.96405 6.10606 2.1378 6.10606 2.35209ZM7.21365 2.74594C7.18891 2.22612 7.06956 1.76568 6.68678 1.38632C6.30545 1.00695 5.84262 0.888224 5.32012 0.862161C4.7816 0.831754 3.16752 0.831754 2.629 0.862161C2.10795 0.886776 1.64512 1.00551 1.26234 1.38487C0.879559 1.76423 0.761669 2.22468 0.735471 2.74449C0.704906 3.28023 0.704906 4.886 0.735471 5.42173C0.760213 5.94155 0.879559 6.40199 1.26234 6.78135C1.64512 7.16072 2.1065 7.27945 2.629 7.30551C3.16752 7.33592 4.7816 7.33592 5.32012 7.30551C5.84262 7.28089 6.30545 7.16216 6.68678 6.78135C7.0681 6.40199 7.18745 5.94155 7.21365 5.42173C7.24421 4.886 7.24421 3.28167 7.21365 2.74594ZM6.51795 5.99657C6.40442 6.28037 6.18465 6.499 5.89793 6.61339C5.46857 6.7828 4.44976 6.74371 3.97529 6.74371C3.50081 6.74371 2.48055 6.78135 2.05265 6.61339C1.76738 6.50045 1.54761 6.28181 1.43263 5.99657C1.26234 5.56943 1.30164 4.55586 1.30164 4.08384C1.30164 3.61181 1.2638 2.5968 1.43263 2.1711C1.54615 1.8873 1.76592 1.66867 2.05265 1.55428C2.482 1.38487 3.50081 1.42396 3.97529 1.42396C4.44976 1.42396 5.47003 1.38632 5.89793 1.55428C6.1832 1.66722 6.40297 1.88586 6.51795 2.1711C6.68823 2.59824 6.64894 3.61181 6.64894 4.08384C6.64894 4.55586 6.68823 5.57087 6.51795 5.99657Z" fill="white"/>
</svg>
