<svg width="8" height="7" viewBox="0 0 8 7" fill="none" xmlns="http://www.w3.org/2000/svg">
<g clip-path="url(#clip0_0_156)">
<path d="M2.42491 6.96806V2.79984H1.02697V6.96806H2.42491ZM1.72612 2.2304C2.2136 2.2304 2.51704 1.91033 2.51704 1.51035C2.50796 1.10135 2.21362 0.790161 1.73537 0.790161C1.25719 0.790161 0.944496 1.10135 0.944496 1.51035C0.944496 1.91035 1.24786 2.2304 1.71699 2.2304H1.72608H1.72612ZM3.19866 6.96806H4.59659V4.64032C4.59659 4.51575 4.60567 4.3913 4.64259 4.30225C4.74365 4.05334 4.97366 3.79555 5.35983 3.79555C5.86568 3.79555 6.06805 4.17779 6.06805 4.73813V6.96803H7.4659V4.57801C7.4659 3.2977 6.77623 2.70199 5.85648 2.70199C5.10235 2.70199 4.77124 3.11975 4.58729 3.40428H4.59662V2.79976H3.19869C3.21703 3.19088 3.19869 6.96798 3.19869 6.96798L3.19866 6.96806Z" fill="white"/>
</g>
<defs>
<clipPath id="clip0_0_156">
<rect width="6.58976" height="6.1779" fill="white" transform="translate(0.961761 0.790405)"/>
</clipPath>
</defs>
</svg>
