<svg width="9" height="6" viewBox="0 0 9 6" fill="none" xmlns="http://www.w3.org/2000/svg">
<g clip-path="url(#clip0_0_151)">
<path d="M8.10316 0.904674C7.82847 1.02184 7.53712 1.09874 7.23878 1.13283C7.54953 0.953506 7.78814 0.669535 7.90049 0.331188C7.60508 0.499971 7.28188 0.61889 6.94485 0.682806C6.67031 0.401208 6.27921 0.22522 5.84634 0.22522C5.0152 0.22522 4.34134 0.873995 4.34134 1.67418C4.34134 1.78776 4.35466 1.89834 4.38031 2.00441C3.12956 1.94397 2.02065 1.36712 1.27836 0.490457C1.14885 0.704463 1.07463 0.953395 1.07463 1.21891C1.07463 1.72163 1.34034 2.16512 1.74413 2.42498C1.50515 2.41777 1.27141 2.35562 1.06245 2.24372C1.06237 2.24979 1.06237 2.25586 1.06237 2.26195C1.06237 2.964 1.58112 3.54966 2.26956 3.68277C2.04795 3.7408 1.81549 3.74929 1.58995 3.7076C1.78144 4.28327 2.33725 4.70217 2.99577 4.7139C2.48072 5.10251 1.83179 5.33417 1.12673 5.33417C1.00523 5.33417 0.885459 5.3273 0.767719 5.31392C1.43373 5.72505 2.22478 5.96493 3.07466 5.96493C5.84284 5.96493 7.35655 3.75698 7.35655 1.84222C7.35655 1.77937 7.35511 1.71688 7.35219 1.65475C7.64682 1.44968 7.90112 1.19568 8.10316 0.904674Z" fill="white"/>
</g>
<defs>
<clipPath id="clip0_0_151">
<rect width="7.41348" height="5.76604" fill="white" transform="translate(0.780682 0.202393)"/>
</clipPath>
</defs>
</svg>
